<svg width="32" height="32" viewBox="0 0 32 32" fill="none" xmlns="http://www.w3.org/2000/svg">
<path d="M28.648 14.002C29.1327 13.9717 29.5691 14.2942 29.6824 14.7665C29.8214 15.3445 29.9127 15.9409 29.9526 16.5512C30.0162 17.5266 30.0162 18.5354 29.9526 19.511C29.8244 21.4754 28.9618 23.2392 28.013 24.6598C27.7766 25.1224 27.8859 25.8605 28.4092 26.8432L28.4364 26.894C28.6114 27.2222 28.7903 27.5581 28.8947 27.8476C29.0062 28.1568 29.1356 28.6856 28.8239 29.212C28.5403 29.691 28.0894 29.8609 27.7447 29.927C27.4626 29.981 27.1203 29.9892 26.8142 29.9964L26.7583 29.9977C25.1166 30.0373 23.9519 29.5665 23.0286 28.892C22.8868 28.7885 22.7823 28.7124 22.701 28.655C22.5776 28.702 22.4148 28.7682 22.1882 28.8606C21.5591 29.1173 20.8468 29.2704 20.1927 29.3134C18.5348 29.4226 16.8024 29.4229 15.1412 29.3134C13.1379 29.1816 11.2888 28.4868 9.75116 27.385C9.36742 27.1101 9.22822 26.6042 9.41728 26.1716C9.60635 25.739 10.0722 25.4977 10.5346 25.5925C13.0668 26.1122 17.1142 26.2057 20.6419 24.7702C24.0926 23.3662 27.0898 20.4932 27.7163 14.8889C27.7703 14.4062 28.1632 14.0321 28.648 14.002Z" fill="white"/>
<path fill-rule="evenodd" clip-rule="evenodd" d="M16.1926 1.41555C14.5314 1.30615 12.7989 1.30638 11.1411 1.41555C5.89596 1.76097 1.72438 5.95764 1.38122 11.2181C1.31759 12.1935 1.31759 13.2024 1.38122 14.178C1.50938 16.1424 2.37195 17.9061 3.32079 19.3268C3.55712 19.7893 3.44784 20.5275 2.92446 21.5101L2.89738 21.5609C2.72238 21.8892 2.54342 22.2249 2.43904 22.5145C2.32752 22.8237 2.19812 23.3525 2.50983 23.8789C2.61519 24.0569 2.76166 24.2275 2.96555 24.3628C3.16124 24.4925 3.36347 24.5588 3.53903 24.5963C3.84748 24.6621 4.22354 24.6648 4.58778 24.6649C6.22296 24.7019 7.38419 24.2317 8.30519 23.5589C8.44691 23.4553 8.55146 23.3792 8.63282 23.322C8.75614 23.3689 8.91903 23.4352 9.1456 23.5276C9.77476 23.7843 10.4869 23.9373 11.1411 23.9804C12.7989 24.0896 14.5314 24.0899 16.1926 23.9804C21.4376 23.6351 25.6094 19.4383 25.9524 14.1779C26.016 13.2024 26.016 12.1935 25.9524 11.218C25.6092 5.95763 21.4376 1.76097 16.1926 1.41555ZM9.00016 9.33359C8.44788 9.33359 8.00016 9.78131 8.00016 10.3336C8.00016 10.8859 8.44788 11.3336 9.00016 11.3336H14.3335C14.8858 11.3336 15.3335 10.8859 15.3335 10.3336C15.3335 9.78131 14.8858 9.33359 14.3335 9.33359H9.00016ZM9.00016 16.6669H18.3335C18.8858 16.6669 19.3335 16.2192 19.3335 15.6669C19.3335 15.1147 18.8858 14.6669 18.3335 14.6669H9.00016C8.44788 14.6669 8.00016 15.1147 8.00016 15.6669C8.00016 16.2192 8.44788 16.6669 9.00016 16.6669Z" fill="white"/>
</svg>
